<?xml version="1.0" encoding="UTF-8"?>
<svg version="1.1" xmlns="http://www.w3.org/2000/svg" width="512" height="512">
<path d="M0,0 L39,0 L61,4 L76,9 L91,13 L106,15 L134,15 L139,18 L141,21 L141,41 L137,53 L136,58 L141,68 L146,85 L149,107 L149,129 L147,150 L145,159 L146,166 L149,180 L149,190 L146,206 L141,216 L134,224 L124,230 L122,230 L120,240 L114,257 L105,274 L94,288 L94,317 L96,326 L102,335 L109,342 L123,351 L139,359 L159,367 L185,375 L207,381 L223,387 L235,394 L245,402 L252,409 L260,422 L266,438 L269,457 L269,492 L265,496 L256,496 L253,493 L252,488 L251,457 L247,437 L240,423 L230,412 L217,404 L202,398 L176,391 L150,383 L142,380 L137,381 L123,395 L110,405 L95,414 L78,422 L60,428 L46,431 L38,432 L4,432 L-18,428 L-39,421 L-62,409 L-76,399 L-88,388 L-96,380 L-102,381 L-130,390 L-157,397 L-173,403 L-185,410 L-195,419 L-202,430 L-206,440 L-209,457 L-210,487 L-211,488 L-227,488 L-227,457 L-224,438 L-218,422 L-212,412 L-203,402 L-192,393 L-176,385 L-155,378 L-128,371 L-102,362 L-81,352 L-68,343 L-61,337 L-55,328 L-53,323 L-52,317 L-52,288 L-63,274 L-72,258 L-79,239 L-81,229 L-87,227 L-96,220 L-102,211 L-106,201 L-107,196 L-107,172 L-104,163 L-105,156 L-107,145 L-107,91 L-103,76 L-95,60 L-87,49 L-80,42 L-65,32 L-55,21 L-42,12 L-26,5 L-8,1 Z M20,16 L1,17 L-16,20 L-30,25 L-41,32 L-49,40 L-54,47 L-64,52 L-74,61 L-80,68 L-87,82 L-90,93 L-91,106 L-90,143 L-89,148 L-85,147 L-76,140 L-66,129 L-57,115 L-47,96 L-41,82 L-37,80 L-30,81 L-22,88 L-10,94 L6,98 L32,98 L56,95 L73,95 L84,98 L94,103 L104,112 L111,122 L121,140 L127,149 L129,150 L131,141 L132,128 L132,108 L129,88 L123,70 L117,60 L117,51 L122,43 L124,32 L100,31 L80,28 L70,25 L55,20 L39,17 Z M-32,103 L-40,119 L-48,133 L-58,146 L-71,159 L-84,167 L-90,170 L-91,173 L-91,194 L-87,205 L-81,212 L-69,217 L-66,222 L-60,243 L-53,259 L-45,271 L-41,276 L-36,279 L-33,284 L-19,293 L-8,300 L1,303 L6,304 L34,304 L46,301 L58,294 L69,287 L79,278 L86,271 L93,260 L99,248 L104,233 L108,218 L115,215 L122,211 L128,204 L131,196 L132,189 L132,181 L130,172 L127,168 L117,163 L108,151 L98,133 L89,121 L79,114 L72,112 L56,112 L34,115 L4,115 L-11,112 L-24,107 Z M-35,302 L-36,326 L-40,337 L-49,349 L-58,357 L-72,366 L-80,371 L-74,378 L-62,388 L-48,397 L-32,405 L-15,411 L5,415 L22,416 L44,414 L67,408 L87,399 L101,390 L111,382 L121,373 L121,370 L104,360 L91,349 L82,337 L78,326 L77,302 L66,308 L56,314 L44,318 L38,319 L4,319 L-9,316 L-21,310 L-33,302 Z " fill="#8a84e2" stroke="#8a84e2" stroke-width="8" stroke-linejoin="round" transform="translate(235,8)"/>
</svg>
