<?xml version="1.0" encoding="UTF-8"?>
<svg version="1.1" xmlns="http://www.w3.org/2000/svg" width="512" height="512">
<path d="M0 0 C1.7398826 -0.00302281 3.47976388 -0.00691294 5.21964282 -0.01159257 C9.98762845 -0.02186468 14.75553882 -0.01969274 19.5235306 -0.01541197 C24.67089752 -0.01294332 29.81824639 -0.02196067 34.96560669 -0.02944946 C45.04498377 -0.04219475 55.1243342 -0.04399035 65.20371798 -0.0416492 C73.39753058 -0.03986563 81.59133509 -0.04161652 89.78514671 -0.04587364 C91.53492425 -0.04676643 91.53492425 -0.04676643 93.32005083 -0.04767724 C95.68990225 -0.04888901 98.05975367 -0.05010314 100.42960509 -0.05131962 C122.65131965 -0.06219458 144.87301904 -0.06003292 167.09473445 -0.05393478 C187.41683381 -0.0487661 207.73888523 -0.06001985 228.06097511 -0.07903299 C248.93491159 -0.0984125 269.80882538 -0.10666717 290.68277091 -0.10290974 C302.39898137 -0.10099782 314.11515103 -0.10348444 325.83135414 -0.11762428 C335.80591145 -0.12954049 345.78040284 -0.13094026 355.75496105 -0.11883412 C360.84199744 -0.11294706 365.92891328 -0.11184128 371.01594162 -0.12383652 C375.67750292 -0.13470056 380.33884309 -0.13158568 385.00039407 -0.11757483 C386.68202315 -0.11492935 388.36366959 -0.11728975 390.04528163 -0.1253107 C408.10168817 -0.20542228 422.30719496 3.19938481 435.75505066 15.90132141 C439.0496952 19.39862423 441.60987557 23.09093053 443.97770691 27.26069641 C444.36700378 27.94132141 444.75630066 28.62194641 445.15739441 29.32319641 C449.41401038 37.27716494 450.27562173 44.85352764 450.25236511 53.74067688 C450.25747604 54.75966064 450.26258698 55.77864441 450.26785278 56.82850647 C450.28168955 60.17835963 450.28079642 63.52800567 450.27848816 66.87788391 C450.28237838 69.21904069 450.28671372 71.56019676 450.29147339 73.90135193 C450.29892293 78.80191844 450.29865351 83.7024129 450.29338074 88.60298157 C450.28758838 94.86604551 450.30451792 101.1288135 450.32772541 107.39182854 C450.34249602 112.22528289 450.3433299 117.05866651 450.34021568 121.89213943 C450.34072724 124.20048229 450.34593363 126.50882927 450.3560276 128.81715012 C450.36843885 132.0522683 450.36157191 135.28681701 450.35002136 138.52192688 C450.3576651 139.46458405 450.36530884 140.40724121 450.3731842 141.37846375 C450.26167509 155.59207346 444.14939475 167.74471929 434.45817566 177.97163391 C424.26293624 187.38015406 411.6065624 192.37861604 397.80545712 192.39212418 C397.09078936 192.39417681 396.3761216 192.39622944 395.63979724 192.39834428 C393.23865815 192.4040107 390.83757648 192.40255747 388.43643188 192.40113831 C386.7000025 192.40372215 384.9635737 192.40673537 383.22714573 192.41014171 C378.45014272 192.41821279 373.67315473 192.42000134 368.8961457 192.42073917 C363.74598594 192.42258956 358.59583397 192.43013688 353.44567871 192.43687439 C342.18106657 192.45045948 330.91645799 192.45648284 319.65183902 192.46088505 C312.61781727 192.46364744 305.5837969 192.46788481 298.54977608 192.47238922 C279.07414937 192.48458262 259.59852377 192.49488147 240.12289333 192.49826431 C238.25293694 192.49859366 238.25293694 192.49859366 236.34520364 192.49892966 C234.47077058 192.49925708 234.47077058 192.49925708 232.55847019 192.49959111 C230.02625938 192.50003458 227.49404858 192.50048114 224.96183777 192.50093079 C223.70577357 192.50115222 222.44970937 192.50137365 221.15558261 192.50160179 C200.80736543 192.50554895 180.45918408 192.52300019 160.11098074 192.54629031 C139.21909382 192.57000964 118.32722486 192.58246645 97.43532425 192.58363223 C85.70563656 192.58454872 73.97599555 192.59029432 62.24632072 192.60845184 C52.25703185 192.62386072 42.26780406 192.62896866 32.27850556 192.62071374 C27.18339272 192.61680992 22.08840287 192.61772382 16.99330521 192.63177109 C12.32418794 192.64452596 7.6552859 192.64329851 2.98616887 192.63118038 C1.30172629 192.62922612 -0.38273162 192.6322892 -2.06715269 192.64102474 C-20.22508065 192.72919163 -34.46337961 189.09594448 -48.05744934 176.36225891 C-58.10881772 165.61149114 -62.33487209 153.27154842 -62.29695129 138.78071594 C-62.30206223 137.76173218 -62.30717316 136.74274841 -62.31243896 135.69288635 C-62.32627573 132.34303319 -62.3253826 128.99338715 -62.32307434 125.64350891 C-62.32696456 123.30235214 -62.3312999 120.96119606 -62.33605957 118.62004089 C-62.34350911 113.71947438 -62.34323969 108.81897993 -62.33796692 103.91841125 C-62.33217456 97.65534732 -62.3491041 91.39257932 -62.37231159 85.12956429 C-62.38708221 80.29610994 -62.38791608 75.46272631 -62.38480186 70.62925339 C-62.38531342 68.32091053 -62.39051981 66.01256355 -62.40061378 63.70424271 C-62.41302503 60.46912452 -62.40615809 57.23457582 -62.39460754 53.99946594 C-62.40225128 53.05680878 -62.40989502 52.11415161 -62.41777039 51.14292908 C-62.30999089 37.404718 -56.57644733 25.28788159 -47.22151184 15.32710266 C-33.27873058 2.22633661 -18.36934914 -0.04520098 0 0 Z " fill="#FF4242" transform="translate(62.02229309082031,159.7393035888672)"/>
</svg>
