<?xml version="1.0" encoding="UTF-8"?>
<svg version="1.1" xmlns="http://www.w3.org/2000/svg" width="512" height="512">
<path d="M0 0 C0.96988861 0.00182281 1.93977722 0.00364563 2.9390564 0.00552368 C17.29056055 0.05091691 31.25442918 0.5562653 45.375 3.3125 C46.72053955 3.55395752 46.72053955 3.55395752 48.09326172 3.80029297 C96.78093124 12.61028149 141.80505908 36.05356547 177.375 70.3125 C178.3640332 71.26068604 178.3640332 71.26068604 179.37304688 72.22802734 C188.86130305 81.37247479 197.6012044 90.66984009 205.375 101.3125 C206.23306152 102.46355017 207.09113451 103.61459177 207.94921875 104.765625 C213.98791574 112.95680857 219.3588509 121.46247349 224.375 130.3125 C224.77187012 131.00375977 225.16874023 131.69501953 225.57763672 132.40722656 C242.85808207 162.77310236 258.15048677 203.73230154 255.375 239.3125 C253.6990197 245.31505987 249.95576641 250.07465027 244.65196647 253.38933375 C239.61378069 256.09242485 235.64465538 256.88876359 229.96906471 256.82145119 C229.15747568 256.82786414 228.34588664 256.8342771 227.50970399 256.84088439 C224.79667537 256.85745577 222.08453316 256.84564729 219.37149048 256.83389282 C217.40417729 256.83993556 215.4368688 256.84771438 213.46956861 256.85707796 C208.06831776 256.87765949 202.66733211 256.87326897 197.2660594 256.86471677 C191.43906756 256.85978621 185.6121399 256.87780568 179.78517151 256.89279175 C168.37145765 256.91830072 156.95783786 256.92187129 145.5441003 256.91719122 C136.26757287 256.91362631 126.99107403 256.91712106 117.71455002 256.92564011 C115.73473577 256.92742567 115.73473577 256.92742567 113.71492528 256.92924731 C111.70585687 256.93106184 109.69678845 256.93287917 107.68772006 256.93471201 C89.01075854 256.95156884 70.33380742 256.96024399 51.65683937 256.95189857 C50.95289534 256.95158582 50.24895131 256.95127307 49.52367564 256.95095084 C45.95588784 256.9493393 42.38810008 256.94764776 38.82031234 256.94592424 C37.75747004 256.94541097 37.75747004 256.94541097 36.67315619 256.94488734 C35.24027317 256.94419403 33.80739016 256.94349697 32.37450714 256.94279617 C10.0783849 256.93208155 -12.21757914 256.94794396 -34.51367188 256.98486328 C-59.56938789 257.02630367 -84.62500591 257.0477487 -109.68075812 257.03971231 C-112.35281156 257.03892163 -115.02486501 257.03819853 -117.69691849 257.03751755 C-119.01163206 257.03718187 -120.32634564 257.03684619 -121.68089902 257.03650034 C-130.94522531 257.03562452 -140.20946314 257.04941056 -149.47376633 257.06914139 C-160.76561486 257.09294693 -172.05723055 257.09580374 -183.34908222 257.07156105 C-189.11038615 257.05976804 -194.87126398 257.05762666 -200.63253975 257.08156586 C-205.90795614 257.10323151 -211.18258932 257.09714043 -216.45796867 257.06904249 C-218.36502767 257.0637341 -220.27214755 257.06852732 -222.17914693 257.08451422 C-241.23714573 257.23317708 -241.23714573 257.23317708 -248.625 250.3125 C-255.54407865 241.5381604 -255.48971306 232.37572638 -254.34082031 221.66259766 C-248.05981673 173.39316935 -227.40422589 127.15286187 -195.625 90.3125 C-194.99078125 89.56742187 -194.3565625 88.82234375 -193.703125 88.0546875 C-181.89198485 74.54970167 -169.14139772 61.87831257 -154.625 51.3125 C-153.47505169 50.45600934 -152.32531411 49.59923567 -151.17578125 48.7421875 C-142.98410544 42.70101336 -134.476615 37.32954944 -125.625 32.3125 C-124.58811035 31.71719482 -124.58811035 31.71719482 -123.53027344 31.10986328 C-85.83140261 9.65639751 -43.12810659 -0.16844934 0 0 Z " fill="#42FF9E" transform="translate(255.625,127.6875)"/>
</svg>
