<?xml version="1.0" encoding="UTF-8"?>
<svg version="1.1" xmlns="http://www.w3.org/2000/svg" width="512" height="512">
<path d="M0,0 L16,0 L29,4 L38,1 L42,0 L60,0 L70,4 L82,15 L92,27 L105,45 L115,58 L124,68 L135,76 L144,79 L153,82 L158,86 L162,94 L163,99 L163,125 L160,137 L154,147 L146,155 L139,159 L134,175 L127,191 L119,204 L112,213 L103,223 L100,226 L100,259 L105,268 L114,276 L130,285 L159,297 L187,308 L203,316 L218,325 L234,337 L247,349 L257,361 L266,376 L272,391 L275,404 L275,422 L272,425 L262,425 L259,422 L256,401 L251,386 L245,375 L234,361 L225,352 L212,342 L194,331 L175,322 L152,313 L140,331 L129,343 L118,353 L104,362 L87,370 L70,375 L59,377 L27,377 L8,373 L-8,367 L-25,358 L-39,347 L-51,335 L-61,321 L-66,313 L-94,324 L-111,332 L-125,341 L-138,351 L-152,365 L-162,380 L-167,391 L-171,406 L-173,422 L-176,425 L-186,425 L-189,422 L-189,404 L-185,388 L-180,376 L-174,365 L-164,352 L-148,336 L-133,325 L-118,316 L-102,308 L-61,292 L-43,284 L-30,277 L-20,268 L-15,260 L-14,254 L-14,226 L-24,216 L-34,203 L-44,185 L-50,169 L-53,159 L-64,152 L-70,145 L-75,134 L-77,126 L-77,101 L-74,91 L-70,85 L-64,81 L-48,77 L-39,71 L-33,63 L-28,52 L-18,20 L-12,9 L-4,2 Z M4,18 L-1,26 L-14,64 L-21,77 L-30,87 L-37,92 L-49,96 L-57,98 L-60,104 L-60,123 L-57,133 L-50,141 L-40,145 L-37,149 L-32,168 L-25,184 L-18,195 L-10,205 L1,216 L15,225 L26,230 L42,233 L57,231 L69,226 L81,219 L96,205 L105,194 L114,178 L120,162 L124,147 L127,144 L136,141 L142,134 L146,123 L146,104 L143,98 L128,93 L119,88 L106,77 L97,66 L81,45 L72,33 L63,23 L57,19 L49,18 L41,20 L36,24 L28,25 L18,19 L14,18 Z M3,238 L2,263 L-2,273 L-10,283 L-22,292 L-43,303 L-49,306 L-45,314 L-37,324 L-32,330 L-21,339 L-11,346 L6,354 L19,358 L29,360 L57,360 L75,356 L91,349 L103,342 L113,334 L119,329 L128,318 L135,307 L134,305 L116,297 L100,287 L90,277 L84,265 L83,262 L82,239 L76,241 L64,246 L55,248 L31,248 L19,245 Z " fill="#000000" transform="translate(213,79)"/>
<path d="M0,0 L28,0 L43,4 L55,10 L65,19 L70,24 L79,36 L91,59 L100,76 L112,89 L121,100 L130,113 L136,125 L139,136 L140,143 L140,197 L144,208 L152,228 L157,246 L159,257 L159,282 L155,295 L149,305 L142,312 L130,318 L123,320 L92,320 L72,316 L68,314 L66,310 L67,303 L72,299 L79,300 L84,302 L90,303 L120,303 L130,299 L138,290 L141,281 L141,261 L136,240 L126,215 L122,204 L121,198 L121,147 L118,134 L111,120 L100,106 L93,99 L83,86 L75,71 L66,51 L57,37 L47,27 L34,20 L26,18 L14,17 L-4,19 L-16,23 L-25,29 L-30,33 L-36,33 L-48,27 L-51,26 L-68,26 L-80,30 L-91,38 L-98,47 L-110,70 L-118,85 L-131,100 L-140,111 L-147,121 L-153,133 L-155,141 L-156,150 L-156,198 L-158,207 L-168,233 L-174,254 L-175,260 L-175,281 L-171,291 L-168,294 L-168,296 L-164,298 L-154,302 L-145,303 L-127,302 L-112,299 L-105,299 L-100,304 L-100,311 L-103,315 L-119,319 L-126,320 L-157,320 L-169,316 L-178,310 L-186,301 L-191,291 L-193,283 L-193,258 L-189,239 L-181,216 L-174,199 L-174,144 L-171,129 L-166,117 L-159,105 L-146,90 L-134,77 L-123,56 L-115,40 L-107,29 L-98,20 L-89,14 L-75,9 L-70,8 L-48,8 L-36,12 L-32,11 L-20,5 L-6,1 Z " fill="#000000" transform="translate(273,8)"/>
</svg>
